# xmcd
#
# Track frame offsets:
#	150
#	11685
#	26365
#	43635
#	65076
#	78656
#	91242
#	103983
#	121138
#	134045
#	143738
#
# Disc length: 2145 seconds
#
# Revision: 0
# Processed by: cddbd v1.5PL3 Copyright (c) Steve Scherf et al.
# Submitted via: dBpowerAMP V4.0
#
DISCID=97085f0b
DTITLE=Adie Grey - Brand New old Time Music
DYEAR=1993
DGENRE=Country
TTITLE0=I May be Down (But I Ain't Done)
TTITLE1=Mr. Roy
TTITLE2=Underneath The Tennessee Moon
TTITLE3=On The South Side Of Town
TTITLE4=I'll Go Where You Go
TTITLE5=Hurricane's Comin'
TTITLE6=Better With Time
TTITLE7=That Good Ol' Boy
TTITLE8=I Got You Now
TTITLE9=When I'm In Dixie
TTITLE10=A Better Way
EXTD=
EXTT0=
EXTT1=
EXTT2=
EXTT3=
EXTT4=
EXTT5=
EXTT6=
EXTT7=
EXTT8=
EXTT9=
EXTT10=
PLAYORDER=
